<?xml version="1.0" encoding="iso-8859-1"?>
<!-- Generator: Adobe Illustrator 16.0.0, SVG Export Plug-In . SVG Version: 6.00 Build 0)  -->
<!DOCTYPE svg PUBLIC "-//W3C//DTD SVG 1.1//EN" "http://www.w3.org/Graphics/SVG/1.1/DTD/svg11.dtd">
<svg xmlns="http://www.w3.org/2000/svg" xmlns:xlink="http://www.w3.org/1999/xlink" version="1.1" id="Capa_1" x="0px" y="0px" width="512px" height="512px" viewBox="0 0 61.694 61.693" style="enable-background:new 0 0 61.694 61.693;" xml:space="preserve">
<g>
	<g>
		<path d="M60.837,48.857c-2.734-0.607-11.719,0-11.719,0s2.734-6.033,1.823-6.424s-5.339-2.213-5.339-2.213l-4.947,8.637h-5.209    c24.479-31.336-21.483-36.372-21.483-36.372c0.591-8.029-1.724-9.071-3.422-8.814L8.886,2.106L6.078,5.077    C6.02,5.106,5.963,5.152,5.912,5.217c-0.565,0.724-1.035,1.5-1.449,2.319C4.278,7.902,4.545,8.241,4.85,8.311    c-5.726,6.275-5.846,10.491-3.126,18.759c3.255,9.896,2.604,32.031,2.604,32.031h2.734c0,0-3.906-38.541,7.683-28.385    c11.588,10.156,9.635,19.531,13.672,25.13c4.036,5.599,19.271,3.255,19.271,3.255l11.197-3.646    C58.884,55.455,63.572,49.466,60.837,48.857z M5.761,7.332c0.268-0.478,0.551-0.947,0.888-1.378    c0.003-0.003,0.003-0.007,0.005-0.01l0.257,0.244C6.512,6.575,6.123,6.96,5.761,7.332z M12.661,23.981c0,0-0.26-7.424,0.651-8.334    c0.912-0.91,29.427,7.553,24.609,16.147c-4.818,8.594-7.552,8.594-8.854,12.239C29.067,44.033,21.385,28.409,12.661,23.981z" fill="#FFFFFF"/>
	</g>
</g>
<g>
</g>
<g>
</g>
<g>
</g>
<g>
</g>
<g>
</g>
<g>
</g>
<g>
</g>
<g>
</g>
<g>
</g>
<g>
</g>
<g>
</g>
<g>
</g>
<g>
</g>
<g>
</g>
<g>
</g>
</svg>
